<svg width="52" height="52" viewBox="0 0 52 52" fill="none" xmlns="http://www.w3.org/2000/svg">
<path d="M0 26C0 11.6406 11.6406 0 26 0C40.3594 0 52 11.6406 52 26C52 40.3594 40.3594 52 26 52C11.6406 52 0 40.3594 0 26Z" fill="#0C4776"/>
<path d="M26 46C37.0457 46 46 37.0457 46 26C46 14.9543 37.0457 6 26 6C14.9543 6 6 14.9543 6 26C6 37.0457 14.9543 46 26 46Z" fill="white" stroke="#007A7F" stroke-width="2"/>
<path fill-rule="evenodd" clip-rule="evenodd" d="M21.9398 16.7218L24.2279 18.9983L31.7583 11.5073L34.6951 14.4291L24.2279 24.8407L19.043 19.683L21.9398 16.7218Z" fill="#007A7F"/>
<path d="M18.1522 35.9595C19.0079 35.9595 19.6653 35.8029 19.9574 35.6568L19.7174 34.4151C19.4044 34.5403 18.8722 34.6447 18.3922 34.6447C16.9731 34.6447 16.1383 33.7577 16.1383 32.349C16.1383 30.7838 17.1192 30.0221 18.3818 30.0221C18.9453 30.0221 19.394 30.1473 19.7174 30.2829L20.0409 29.0203C19.7592 28.8742 19.1331 28.7073 18.3087 28.7073C16.1801 28.7073 14.4688 30.0429 14.4688 32.4429C14.4688 34.4464 15.7209 35.9595 18.1522 35.9595ZM23.8989 35.9595C24.7545 35.9595 25.4119 35.8029 25.7041 35.6568L25.4641 34.4151C25.1511 34.5403 24.6189 34.6447 24.1389 34.6447C22.7198 34.6447 21.885 33.7577 21.885 32.349C21.885 30.7838 22.8658 30.0221 24.1285 30.0221C24.6919 30.0221 25.1406 30.1473 25.4641 30.2829L25.7876 29.0203C25.5059 28.8742 24.8798 28.7073 24.0554 28.7073C21.9267 28.7073 20.2154 30.0429 20.2154 32.4429C20.2154 34.4464 21.4676 35.9595 23.8989 35.9595ZM28.1743 35.8551V33.3403C28.3203 33.3612 28.5082 33.3716 28.7169 33.3716C29.656 33.3716 30.4595 33.1421 31.0021 32.6308C31.4195 32.2342 31.649 31.6499 31.649 30.9612C31.649 30.2725 31.3464 29.6881 30.8977 29.3334C30.4282 28.9577 29.729 28.7699 28.7482 28.7699C27.7777 28.7699 27.089 28.8325 26.5986 28.916V35.8551H28.1743ZM28.7064 32.1508C28.4769 32.1508 28.3099 32.1403 28.1743 32.109V30.0325C28.289 30.0012 28.5082 29.9699 28.8316 29.9699C29.6247 29.9699 30.0734 30.356 30.0734 31.0029C30.0734 31.7229 29.5516 32.1508 28.7064 32.1508ZM33.0235 35.8551L33.5244 34.0499H35.5383L36.0809 35.8551H37.7922L35.6114 28.8221H33.5244L31.3748 35.8551H33.0235ZM35.3087 32.8603H33.754L34.1714 31.3681C34.2861 30.9612 34.3905 30.429 34.4948 30.0116H34.5157C34.6201 30.429 34.7453 30.9508 34.8705 31.3681L35.3087 32.8603Z" fill="#0C4776"/>
</svg>
