<svg width="52" height="52" viewBox="0 0 52 52" fill="none" xmlns="http://www.w3.org/2000/svg">
<path d="M0 26C0 11.6406 11.6406 0 26 0C40.3594 0 52 11.6406 52 26C52 40.3594 40.3594 52 26 52C11.6406 52 0 40.3594 0 26Z" fill="#0047BD"/>
<path fill-rule="evenodd" clip-rule="evenodd" d="M24.3149 11.2327L26.0039 9.98946L27.693 11.2327L27.0509 9.23793L28.733 7.99473H26.653L26.0109 6L25.3618 7.99473H23.2749L24.957 9.23793L24.3149 11.2327ZM34.6372 12.3214L32.9412 13.5646L33.5903 11.5698L31.9012 10.3266H33.9951L34.6372 8.33189L35.2863 10.3266H37.3593L35.6842 11.5698L36.3263 13.5646L34.6372 12.3214ZM39.2647 19.928L40.9607 18.6918L42.6498 19.928L42.0076 17.9332L43.6827 16.6971H41.6098L40.9607 14.7023L40.3186 16.6971H38.2247L39.9138 17.9332L39.2647 19.928ZM7.03298 28.6093L8.72902 27.3731L10.4181 28.6093L9.77596 26.6216L11.4511 25.3784H9.37812L8.736 23.3836L8.0869 25.3784H6L7.68208 26.6216L7.03298 28.6093ZM9.34325 37.3046L11.0393 36.0684L12.7283 37.3046L12.0862 35.3099L13.7683 34.0737H11.6884L11.0393 32.079L10.3972 34.0737H8.31027L9.99235 35.3099L9.34325 37.3046ZM17.3702 42.4249L15.6811 43.6681L16.3233 41.6734L14.6412 40.4302H16.7281L17.3772 38.4355L18.0193 40.4302H20.0992L18.4171 41.6734L19.0593 43.6681L17.3702 42.4249ZM24.3149 46L26.0039 44.7568L27.693 46L27.0509 44.0052L28.733 42.7691H26.653L26.0109 40.7743L25.3618 42.7691H23.2749L24.957 44.0052L24.3149 46ZM34.6372 42.4249L32.9412 43.6681L33.5903 41.6734L31.9012 40.4302H33.9951L34.6372 38.4355L35.2863 40.4302H37.3593L35.6842 41.6734L36.3263 43.6681L34.6372 42.4249ZM39.2647 37.3046L40.9607 36.0684L42.6498 37.3046L42.0076 35.3099L43.6827 34.0737H41.6098L40.9607 32.079L40.3186 34.0737H38.2247L39.9138 35.3099L39.2647 37.3046ZM43.2779 27.3731L41.5819 28.6093L42.231 26.6216L40.5489 25.3784H42.6358L43.2849 23.3836L43.927 25.3784H46L44.3249 26.6216L44.967 28.6093L43.2779 27.3731ZM17.3702 12.3214L15.6811 13.5646L16.3233 11.5698L14.6412 10.3266H16.7281L17.3772 8.33189L18.0193 10.3266H20.0992L18.4171 11.5698L19.0593 13.5646L17.3702 12.3214ZM9.34325 19.928L11.0393 18.6918L12.7283 19.928L12.0862 17.9332L13.7683 16.6971H11.6884L11.0393 14.7023L10.3972 16.6971H8.31027L9.99235 17.9332L9.34325 19.928Z" fill="#FFCC00"/>
<path fill-rule="evenodd" clip-rule="evenodd" d="M19.691 26.8367V25.8391H21.2723V28.0538C21.2723 29.1711 20.6973 29.8096 19.5883 29.8096C18.4793 29.8096 17.9043 29.1711 17.9043 28.0538V24.4225C17.9043 23.3052 18.4793 22.6667 19.5883 22.6667C20.6973 22.6667 21.2723 23.3052 21.2723 24.4225V25.1009H20.2044V24.3527C20.2044 23.8539 19.9785 23.6644 19.6191 23.6644C19.2597 23.6644 19.0338 23.8539 19.0338 24.3527V28.1237C19.0338 28.6225 19.2597 28.802 19.6191 28.802C19.9785 28.802 20.2044 28.6225 20.2044 28.1237V26.8367H19.691ZM22.3165 29.7297V22.7465H24.1032C25.2327 22.7465 25.7872 23.355 25.7872 24.4724V28.0039C25.7872 29.1212 25.2327 29.7297 24.1032 29.7297H22.3165ZM24.0832 23.7441H23.4465V28.7321H24.0832C24.4425 28.7321 24.6582 28.5526 24.6582 28.0538V24.4225C24.6582 23.9237 24.4425 23.7441 24.0832 23.7441ZM28.4852 22.7465C29.6147 22.7465 30.1692 23.355 30.1692 24.4724V25.3802C30.1692 26.4975 29.6147 27.106 28.4852 27.106H27.9512V29.7297H26.8217V22.7465H28.4852ZM28.4848 23.7441H27.9508V26.1084H28.4848C28.8441 26.1084 29.0392 25.9488 29.0392 25.45V24.4025C29.0392 23.9037 28.8441 23.7441 28.4848 23.7441ZM34.5708 29.7297H33.4208C33.3592 29.5502 33.3181 29.4404 33.3181 28.8718V27.7744C33.3181 27.126 33.0922 26.8866 32.5788 26.8866H32.1886V29.7297H31.0591V22.7465H32.7636C33.9342 22.7465 34.4373 23.2752 34.4373 24.3526V24.9013C34.4373 25.6196 34.2012 26.0885 33.698 26.3179C34.2628 26.5474 34.4476 27.0761 34.4476 27.8044V28.8818C34.4476 29.221 34.4579 29.4704 34.5708 29.7297ZM32.7333 23.7441H32.1891V25.889H32.6306C33.0516 25.889 33.3083 25.7094 33.3083 25.1507V24.4624C33.3083 23.9636 33.1338 23.7441 32.7333 23.7441Z" fill="white"/>
</svg>
