<svg width="52" height="52" viewBox="0 0 52 52" fill="none" xmlns="http://www.w3.org/2000/svg">
<path d="M0 26C0 11.6406 11.6406 0 26 0C40.3594 0 52 11.6406 52 26C52 40.3594 40.3594 52 26 52C11.6406 52 0 40.3594 0 26Z" fill="#3D539E"/>
<path fill-rule="evenodd" clip-rule="evenodd" d="M23.1434 9V42.8939C22.9916 42.8918 22.8392 42.8939 22.6672 42.8939C13.4707 42.8939 6 35.3065 6 26.0655C6 16.5874 13.4707 9 22.6672 9C22.8392 9 22.9916 9.00209 23.1434 9Z" fill="white"/>
<path d="M23.1419 15.9558L20.886 17.5326L21.6983 15.0027L19.5703 13.4259H22.2105L23.1419 10.896V15.9558Z" fill="#3D539E"/>
<path d="M23.1433 15.9558L25.3992 17.5326L24.5868 15.0027L26.7148 13.4259H24.0747L23.1433 10.896V15.9558Z" fill="white"/>
<path fill-rule="evenodd" clip-rule="evenodd" d="M40.2154 18.2045C41.1503 18.4463 43.26 18.5724 43.26 18.5724C43.26 18.5724 42.1094 19.5149 40.9533 19.5149C39.2311 19.5149 37.81 18.9534 37.1019 18.6736C36.9994 18.6331 36.9119 18.5985 36.8405 18.5724C35.6593 18.1398 34.3512 17.4197 33.3753 16.6066C32.3995 15.7934 31.0775 15.0338 29.9711 14.8321C28.8647 14.6304 28.1509 15.1874 27.6137 15.6688C27.3371 15.9168 27.2526 16.1548 27.109 16.5592C26.9738 16.94 26.7862 17.4684 26.3364 18.2916C25.409 19.9889 23.147 20.0365 23.147 20.0365V19.5149C23.147 19.5149 23.7836 19.5013 24.719 19.005C25.6544 18.5087 26.0527 16.942 26.2371 15.8959C26.4214 14.8498 27.1245 13.4088 28.9889 13.1967C30.8533 12.9846 32.7231 14.4067 34.3187 15.6688C35.1339 16.3136 37.1489 17.4111 40.2154 18.2045ZM28.1848 29.7639H30.3448V30.8349C30.3448 31.2061 30.3356 31.4424 30.3173 31.544C30.299 31.6455 30.2558 31.7203 30.1877 31.7683C30.1195 31.8163 29.998 31.8404 29.8231 31.8404H29.6797V31.991H31.5621V31.8404H31.4675C31.2824 31.8404 31.1563 31.8142 31.0892 31.7618C31.0221 31.7093 30.9809 31.6291 30.9656 31.521C30.9504 31.4129 30.9427 31.1842 30.9427 30.8349V28.6569C30.9427 28.2879 30.9534 28.0542 30.9748 27.956C30.9961 27.8577 31.0383 27.7906 31.1014 27.7546C31.1644 27.7185 31.2977 27.7005 31.501 27.7005H31.5621V27.5499H29.6797V27.7005H29.7895C29.999 27.7005 30.1348 27.7202 30.1968 27.7595C30.2589 27.7988 30.299 27.8697 30.3173 27.9724C30.3356 28.075 30.3448 28.3031 30.3448 28.6569V29.5379H28.1848V28.6569C28.1848 28.2879 28.1955 28.0542 28.2168 27.956C28.2382 27.8577 28.2804 27.7906 28.3434 27.7546C28.4065 27.7185 28.5387 27.7005 28.7401 27.7005H28.8163V27.5499H26.9553V27.7005H27.0316C27.2411 27.7005 27.3768 27.7202 27.4389 27.7595C27.5009 27.7988 27.5416 27.8697 27.5609 27.9724C27.5802 28.075 27.5899 28.3031 27.5899 28.6569V30.8349C27.5899 31.2061 27.5802 31.4424 27.5609 31.544C27.5416 31.6455 27.4979 31.7203 27.4297 31.7683C27.3616 31.8163 27.239 31.8404 27.0621 31.8404H26.9553V31.991H28.8163V31.8404H28.7095C28.5245 31.8404 28.3989 31.8142 28.3328 31.7618C28.2667 31.7093 28.2255 31.6291 28.2092 31.521C28.1929 31.4129 28.1848 31.1842 28.1848 30.8349V29.7639ZM31.9338 27.5499V27.7005H32.0223C32.2318 27.7005 32.3681 27.7202 32.4311 27.7595C32.4942 27.7988 32.5348 27.8697 32.5532 27.9724C32.5715 28.075 32.5806 28.3031 32.5806 28.6569V30.8349C32.5806 31.2061 32.5715 31.4424 32.5532 31.544C32.5348 31.6455 32.4916 31.7203 32.4235 31.7683C32.3554 31.8163 32.2328 31.8404 32.0559 31.8404H31.9338V31.991H33.8253V31.8404H33.7033C33.5162 31.8404 33.3896 31.8142 33.3235 31.7618C33.2574 31.7093 33.2167 31.6291 33.2015 31.521C33.1862 31.4129 33.1786 31.1842 33.1786 30.8349V28.6569C33.1786 28.2879 33.1893 28.0542 33.2106 27.956C33.232 27.8577 33.2742 27.7906 33.3372 27.7546C33.4003 27.7185 33.5335 27.7005 33.7369 27.7005H33.8253V27.5499H31.9338ZM35.4222 30.8349V29.9014H35.8768C36.3507 29.9014 36.6817 29.8534 36.8698 29.7573C37.058 29.6613 37.2024 29.5204 37.3031 29.3348C37.4037 29.1492 37.4541 28.9353 37.4541 28.6929C37.4541 28.4134 37.3804 28.182 37.2329 27.9986C37.0854 27.8151 36.8963 27.6874 36.6654 27.6154C36.4346 27.5433 36.1056 27.5073 35.6785 27.5073C35.4466 27.5073 35.1233 27.5149 34.7083 27.5302L34.1897 27.5499V27.7005H34.266C34.4755 27.7005 34.6117 27.7202 34.6748 27.7595C34.7378 27.7988 34.7785 27.8697 34.7968 27.9724C34.8151 28.075 34.8243 28.3031 34.8243 28.6569V30.8349C34.8243 31.2061 34.8151 31.4424 34.7968 31.544C34.7785 31.6455 34.7353 31.7203 34.6672 31.7683C34.599 31.8163 34.4765 31.8404 34.2995 31.8404H34.1897V31.991H36.0843V31.8404H35.947C35.7619 31.8404 35.6358 31.8142 35.5687 31.7618C35.5015 31.7093 35.4604 31.6291 35.4451 31.521C35.4299 31.4129 35.4222 31.1842 35.4222 30.8349ZM35.718 29.7376H35.4221V27.6808C35.4953 27.672 35.6011 27.6677 35.7394 27.6677C36.1157 27.6677 36.3877 27.7534 36.5555 27.9248C36.7233 28.0962 36.8072 28.3653 36.8072 28.7321C36.8072 28.9723 36.7584 29.1743 36.6608 29.338C36.5631 29.5018 36.4411 29.6093 36.2947 29.6606C36.1482 29.7119 35.956 29.7376 35.718 29.7376ZM38.6249 30.3535H40.1961L40.5134 31.1755C40.6069 31.4135 40.6537 31.5566 40.6537 31.6046C40.6537 31.6985 40.6186 31.7613 40.5484 31.7929C40.4783 31.8246 40.3435 31.8404 40.1442 31.8404V31.9911H41.7346V31.8404L41.7488 31.8379L41.7703 31.8404V31.9911H42.9641V31.8404C42.8319 31.8404 42.7236 31.806 42.6392 31.7372C42.5548 31.6685 42.5126 31.5675 42.5126 31.4343C42.5126 31.3098 42.5919 31.0435 42.7505 30.6351L42.8573 30.3535H44.4285L44.7458 31.1755C44.8393 31.4135 44.8861 31.5566 44.8861 31.6046C44.8861 31.6985 44.851 31.7613 44.7809 31.7929C44.7107 31.8246 44.576 31.8404 44.3766 31.8404V31.9911H46.0027V31.8404C45.8583 31.8251 45.75 31.7875 45.6778 31.7274C45.6056 31.6674 45.5481 31.5849 45.5054 31.4801L45.3163 31.0151L43.9343 27.4877H43.8153L42.6133 30.5696C42.5258 30.7902 42.477 30.9168 42.4668 30.9496C42.3407 31.2967 42.2329 31.5244 42.1434 31.6324C42.0563 31.7377 41.9247 31.8062 41.7488 31.8379C41.6151 31.8213 41.514 31.7845 41.4454 31.7274C41.3732 31.6674 41.3157 31.5849 41.273 31.4801L41.0839 31.0151L39.7018 27.4877H39.5829L38.3808 30.5696C38.2934 30.7902 38.2446 30.9168 38.2344 30.9496C38.1083 31.2967 38.0005 31.5244 37.911 31.6324C37.8215 31.7405 37.6852 31.8098 37.5022 31.8404V31.9911H38.7317V31.8404C38.5995 31.8404 38.4912 31.806 38.4068 31.7372C38.3224 31.6685 38.2802 31.5675 38.2802 31.4343C38.2802 31.3098 38.3595 31.0435 38.5181 30.6351L38.6249 30.3535ZM39.411 28.3131L40.1432 30.2061H38.6819L39.411 28.3131ZM43.6435 28.3131L44.3757 30.2061H42.9143L43.6435 28.3131ZM23.1448 20.7003C23.1448 20.7003 25.084 20.7254 26.1068 19.6289C26.8739 18.8066 27.2218 17.9771 27.4682 17.3895L27.4682 17.3895C27.5504 17.1936 27.6212 17.0245 27.6926 16.8916C27.9782 16.3599 28.7474 15.4518 29.8967 15.6149C30.6563 15.7228 31.1123 16.023 32.2099 16.7455C32.7727 17.116 33.5042 17.5976 34.532 18.2213C37.0546 19.7522 39.3958 20.2235 39.3958 20.2235C39.3958 20.2235 37.9443 20.5023 36.692 20.2235C35.4396 19.9448 34.2923 19.6289 34.2923 19.6289C34.2923 19.6289 34.5786 20.012 35.0657 20.3814C35.5528 20.7508 36.1115 21.0085 36.1115 21.0085C36.1115 21.0085 34.827 21.0161 33.7839 20.7758C32.7407 20.5355 31.77 20.0084 31.77 20.0084C31.77 20.0084 32.182 20.5842 32.3834 20.7758C32.5847 20.9674 33.2894 21.5342 33.2894 21.5342C33.2894 21.5342 31.5534 21.3269 30.841 20.8501C30.1287 20.3734 29.5768 20.1402 29.3423 20.3814C29.1079 20.6226 29.8117 21.3253 29.8117 21.3253H27.9844C28.4907 21.6848 28.8577 22.3009 28.8577 23.1273C28.8577 25.3075 26.7676 26.2579 25.4556 26.8546C24.8555 27.1275 24.4181 27.3264 24.4181 27.5351C24.4181 27.6782 24.6745 27.8273 25.0171 28.0266C25.7299 28.4412 26.8159 29.0728 26.742 30.318C26.6812 31.3415 25.7827 31.9182 25.0909 32.3623C24.6483 32.6464 24.2903 32.8761 24.2903 33.1338C24.2903 33.3973 24.5801 33.6381 24.9284 33.9276C25.4532 34.3637 26.111 34.9103 26.111 35.8115C26.111 36.9311 25.3294 37.5769 24.7538 38.0524C24.4365 38.3146 24.1818 38.5251 24.1552 38.7347C24.1232 38.9866 24.3144 39.1314 24.5439 39.3052C24.8518 39.5384 25.2287 39.8238 25.2287 40.4903C25.2287 41.1626 24.5911 41.7475 23.8148 42.3686C23.5743 42.5609 23.2313 43.0001 23.2313 43.0001C23.2313 43.0001 23.3273 42.4022 23.4761 42.1262C23.5823 41.9292 23.7006 41.7405 23.8133 41.5606C24.0657 41.1579 24.2903 40.7994 24.2903 40.4903C24.2903 40.229 24.0733 40.0784 23.8231 39.905C23.4831 39.6692 23.082 39.391 23.082 38.7347C23.082 38.1335 23.6207 37.6285 24.1295 37.1515C24.5848 36.7247 25.016 36.3204 25.016 35.8898C25.016 35.4547 24.5759 35.0569 24.1155 34.6408C23.6109 34.1848 23.082 33.7068 23.082 33.1338C23.082 32.5812 23.6499 32.1881 24.2348 31.7833C24.8095 31.3855 25.4006 30.9764 25.4853 30.3934C25.5691 29.817 24.9937 29.4346 24.385 29.0301C23.7515 28.6091 23.082 28.1642 23.082 27.4518C23.082 26.6891 24.1693 26.1409 25.2314 25.6054C26.1148 25.16 26.9809 24.7233 27.1897 24.1792C27.5934 23.1273 27.2292 22.7013 26.8634 22.6196C26.4977 22.538 25.7468 22.7393 25.4853 23.0225C25.3062 23.2166 25.142 23.6149 25.0259 23.8964C24.9726 24.0258 24.9294 24.1304 24.8997 24.1792C24.8052 24.3342 23.906 24.845 23.3906 24.2712C23.0929 23.9398 23.1569 23.4312 23.3906 23.1273C23.5384 22.9351 23.7953 22.7852 23.9914 22.6708C24.0221 22.6529 24.0514 22.6358 24.0784 22.6196C24.204 22.5445 24.3108 22.3927 24.4394 22.2101C24.6349 21.9324 24.8805 21.5835 25.3179 21.3253H23.1448V20.7003Z" fill="white"/>
<path fill-rule="evenodd" clip-rule="evenodd" d="M8.14677 17.538C8.14677 17.538 10.3838 16.9304 11.9794 15.6683C13.5751 14.4062 15.4448 12.9841 17.3092 13.1962C19.1736 13.4083 19.8767 14.8493 20.0611 15.8954C20.2454 16.9415 20.6438 18.5082 21.5791 19.0045C22.5145 19.5008 23.143 19.5145 23.143 19.5145V20.036C23.143 20.036 20.8891 19.9884 19.9617 18.2911C19.0343 16.5938 19.2216 16.1498 18.6844 15.6683C18.1472 15.1869 17.4334 14.6299 16.327 14.8316C15.2206 15.0334 13.8986 15.7929 12.9228 16.6061C11.947 17.4192 10.6388 18.1393 9.45762 18.5719C8.2764 19.0045 7.1875 19.2289 7.1875 19.2289L8.14677 17.538Z" fill="#3D539E"/>
<path fill-rule="evenodd" clip-rule="evenodd" d="M22.9916 42.9998C22.9916 42.9998 22.6486 42.5607 22.4081 42.3683C21.6318 41.7472 20.9942 41.1623 20.9942 40.4901C20.9942 39.3267 22.1425 39.3243 22.0677 38.7345C21.9929 38.1446 20.1119 37.5482 20.1119 35.8112C20.1119 34.3119 21.9326 33.7941 21.9326 33.1336C21.9326 32.4731 19.5805 31.9959 19.4809 30.3178C19.3714 28.4741 21.8048 27.9755 21.8048 27.5349C21.8048 26.87 17.3652 26.3046 17.3652 23.127C17.3652 21.7545 18.3777 20.9619 19.3595 20.9619C21.4626 20.9619 21.6711 22.3361 22.1444 22.6194C22.3444 22.739 22.6614 22.9048 22.8323 23.127C23.066 23.4309 23.13 23.9395 22.8323 24.2709C22.3169 24.8447 21.4177 24.334 21.3232 24.179C21.2288 24.024 20.999 23.3056 20.7376 23.0223C20.4761 22.739 19.7252 22.5377 19.3595 22.6194C18.9937 22.701 18.6295 23.127 19.0332 24.179C19.493 25.3772 23.1409 26.0546 23.1409 27.4516C23.1409 28.8486 20.5666 29.2169 20.7376 30.3932C20.9086 31.5695 23.1409 32.0379 23.1409 33.1336C23.1409 34.2293 21.2069 34.9776 21.2069 35.8895C21.2069 36.8014 23.1409 37.5954 23.1409 38.7345C23.1409 39.8736 21.9326 39.8736 21.9326 40.4901C21.9326 40.9372 22.4027 41.4877 22.7468 42.126C22.8956 42.402 22.9916 42.9998 22.9916 42.9998Z" fill="#3D539E"/>
</svg>
